# xmcd
#
# Track frame offsets: 
#        150
#        11050
#        21927
#        35157
#        47227
#        61087
#        74162
#        87767
#        102272
#        111597
#
# Disc length: 1661 seconds
#
# Revision: 4
# Processed by: cddbd v1.5.1PL0 Copyright (c) Steve Scherf et al.
# Submitted via: ExactAudioCopy v0.95a5
#
DISCID=8e067b0a
DTITLE=George Strait - Greatest Hits
DYEAR=1985
DGENRE=Country
TTITLE0=Unwound
TTITLE1=Down And Out
TTITLE2=If You're Thinking You Want A Stranger (There's One Coming Hom
TTITLE2=e)
TTITLE3=Fool Hearted Memory
TTITLE4=Marina Del Rey
TTITLE5=Amarillo By Morning
TTITLE6=A Fire I Can't Put Out
TTITLE7=You Look So Good In Love
TTITLE8=Right Or Wrong
TTITLE9=Let's Fall To Pieces Together
EXTD=YEAR: 1985\nMCA Records  MCAD-5567
EXTT0=
EXTT1=
EXTT2=
EXTT3=
EXTT4=
EXTT5=
EXTT6=
EXTT7=
EXTT8=
EXTT9=
PLAYORDER=
